<svg xmlns="http://www.w3.org/2000/svg" version="1.1" xmlns:xlink="http://www.w3.org/1999/xlink" xmlns:svgjs="http://svgjs.dev/svgjs" width="1500" height="1500" viewBox="0 0 1500 1500"><rect width="1500" height="1500" fill="#ffffff"></rect><g transform="matrix(0.6666666666666666,0,0,0.6666666666666666,249.39393939393938,438.5856950067477)"><svg viewBox="0 0 396 247" data-background-color="#ffffff" preserveAspectRatio="xMidYMid meet" height="935" width="1500" xmlns="http://www.w3.org/2000/svg" xmlns:xlink="http://www.w3.org/1999/xlink"><g id="tight-bounds" transform="matrix(1,0,0,1,0.2400000000000091,-0.09999999999999432)"><svg viewBox="0 0 395.52 247.2" height="247.2" width="395.52"><g><svg></svg></g><g><svg viewBox="0 0 395.52 247.2" height="247.2" width="395.52"><g><path d="M55.039 247.2l26.403-45.732 2.897 0-24.876 43.086h276.593l-24.875-43.086 2.897 0 26.403 45.732zM197.76 0l26.403 45.732h-2.896l-23.507-40.715-23.507 40.715-2.896 0z" fill="#ff0000" fill-rule="nonzero" stroke="none" stroke-width="1" stroke-linecap="butt" stroke-linejoin="miter" stroke-miterlimit="10" stroke-dasharray="" stroke-dashoffset="0" font-family="none" font-weight="none" font-size="none" text-anchor="none" style="mix-blend-mode: normal" data-fill-palette-color="tertiary"></path></g><g transform="matrix(1,0,0,1,63.8415560863736,67.97999999999999)"><svg viewBox="0 0 267.8368878272528 111.24" height="111.24" width="267.8368878272528"><g><svg viewBox="0 0 267.8368878272528 111.24" height="111.24" width="267.8368878272528"><g><svg viewBox="0 0 395.52 164.27029583907515" height="111.24" width="267.8368878272528"><g transform="matrix(1,0,0,1,0,101.52563302597304)"><svg viewBox="0 0 395.52 62.74466281310212" height="62.74466281310212" width="395.52"><g id="textblocktransform"><svg viewBox="0 0 395.52 62.74466281310212" height="62.74466281310212" width="395.52" id="textblock"><g><svg viewBox="0 0 395.52 62.74466281310212" height="62.74466281310212" width="395.52"><g transform="matrix(1,0,0,1,0,0)"><svg width="395.52" viewBox="1.8 -36.35 233.53 37.050000000000004" height="62.74466281310212" data-palette-color="#ff0000"><path d="M13.6 0.7L13.6 0.7Q6.45 0.7 3.7-2.4L3.7-2.4Q1.8-4.6 1.8-8.55L1.8-8.55Q1.8-10.25 2.15-12.2L2.15-12.2 4.2-23.7Q6.45-36.35 20.45-36.35L20.45-36.35Q26.25-36.35 29.25-33.88 32.25-31.4 32.25-27.1L32.25-27.1Q32.25-25.1 31.68-23.13 31.1-21.15 30.55-20.2L30.55-20.2 30-19.2 21.15-19.2Q22.8-21.1 22.8-24.6L22.8-24.6Q22.8-26.45 21.85-27.53 20.9-28.6 19.05-28.6L19.05-28.6Q14-28.6 13.05-23L13.05-23 11.3-12.9Q11.05-11.6 11.05-10.35L11.05-10.35Q11.05-7.05 15-7.05L15-7.05Q19.75-7.05 20.7-12.4L20.7-12.4 29.7-12.4 29.45-10.95Q27.45 0.7 13.6 0.7ZM48.4-24.75L48.4-24.75Q53.8-24.75 56.55-22.4L56.55-22.4Q58.7-20.55 58.7-17.25L58.7-17.25Q58.7-16.15 58.45-14.85L58.45-14.85 57.4-9Q56.45-3.7 52.97-1.5 49.5 0.7 43.7 0.7 37.9 0.7 35.2-1.5L35.2-1.5Q33.2-3.15 33.2-6.45L33.2-6.45Q33.2-7.6 33.45-9L33.45-9 34.5-14.85Q36.25-24.75 48.4-24.75ZM49.1-10.1L49.75-13.85Q49.85-14.35 49.85-15.13 49.85-15.9 49.2-16.85 48.55-17.8 46.92-17.8 45.3-17.8 44.2-16.73 43.1-15.65 42.8-13.85L42.8-13.85 42.15-10.1Q42.05-9.6 42.05-8.83 42.05-8.05 42.7-7.15 43.35-6.25 44.97-6.25 46.6-6.25 47.7-7.38 48.8-8.5 49.1-10.1L49.1-10.1ZM77.75-15.35L77.75-15.35Q77.75-17.5 75.67-17.5 73.6-17.5 72.25-15.95L72.25-15.95 69.45 0 60.95 0 65.2-24.05 73.1-24.05 72.55-21.1Q75.5-24.75 80-24.75 84.5-24.75 85.85-22.55L85.85-22.55Q86.7-21.15 86.7-19.35 86.7-17.55 86.45-16L86.45-16 85.1-8.3Q85.05-8 85.05-7.75L85.05-7.75Q85.05-6.4 86.55-6.4L86.55-6.4Q87.7-6.4 88.6-6.9L88.6-6.9 88.35-1.25Q86 0.7 83 0.7L83 0.7Q76.2 0.7 76.2-5L76.2-5Q76.2-6 76.4-7.15L76.4-7.15 77.6-13.8Q77.75-14.7 77.75-15.35ZM107.64-15.35L107.64-15.35Q107.64-17.5 105.57-17.5 103.49-17.5 102.14-15.95L102.14-15.95 99.34 0 90.84 0 95.09-24.05 102.99-24.05 102.44-21.1Q105.39-24.75 109.89-24.75 114.39-24.75 115.74-22.55L115.74-22.55Q116.59-21.15 116.59-19.35 116.59-17.55 116.34-16L116.34-16 114.99-8.3Q114.94-8 114.94-7.75L114.94-7.75Q114.94-6.4 116.44-6.4L116.44-6.4Q117.59-6.4 118.49-6.9L118.49-6.9 118.24-1.25Q115.89 0.7 112.89 0.7L112.89 0.7Q106.09 0.7 106.09-5L106.09-5Q106.09-6 106.29-7.15L106.29-7.15 107.49-13.8Q107.64-14.7 107.64-15.35ZM131.54 0.7L131.54 0.7Q121.14 0.7 121.14-6.5L121.14-6.5Q121.14-7.5 121.34-8.65L121.34-8.65 122.39-14.85Q123.24-19.65 126.82-22.23 130.39-24.8 136.29-24.8L136.29-24.8Q146.34-24.8 146.34-17.2L146.34-17.2Q146.34-16.1 146.14-14.8L146.14-14.8 145.54-11.25 130.29-11.25 130.09-10.1Q129.99-9.5 129.99-9L129.99-9Q129.99-6.25 133.24-6.25L133.24-6.25Q134.44-6.25 135.29-7 136.14-7.75 136.29-8.75L136.29-8.75 144.59-8.65Q142.94 0.7 131.54 0.7ZM130.79-14.3L137.54-14.3Q137.74-15.15 137.74-15.88 137.74-16.6 137.09-17.35 136.44-18.1 135.02-18.1 133.59-18.1 132.42-17.15 131.24-16.2 130.79-14.3L130.79-14.3ZM159.14 0.7L159.14 0.7Q148.74 0.7 148.74-6.5L148.74-6.5Q148.74-7.5 148.94-8.65L148.94-8.65 149.99-14.85Q150.79-19.65 154.36-22.2 157.94-24.75 163.44-24.8L163.44-24.8Q174.09-24.8 174.09-17.4L174.09-17.4Q174.09-15.8 173.71-14.53 173.34-13.25 172.94-12.8L172.94-12.8 172.54-12.3 164.04-12.3Q165.29-13.4 165.29-14.9L165.29-14.9Q165.29-17.6 162.59-17.6L162.59-17.6Q160.99-17.6 159.84-16.65 158.69-15.7 158.34-13.75L158.34-13.75 157.69-10.1Q157.59-9.6 157.59-9.15L157.59-9.15Q157.59-6.5 160.89-6.5L160.89-6.5Q161.99-6.5 162.86-7.2 163.74-7.9 163.89-8.75L163.89-8.75 172.19-8.65Q170.54 0.7 159.14 0.7ZM187.24 0.7L187.24 0.7Q181.44 0.7 178.89-1.9L178.89-1.9Q176.99-3.8 176.99-7L176.99-7Q176.99-8.05 177.19-9.25L177.19-9.25 180.59-28.6 189.74-32.4 188.29-24.05 202.09-24.05 200.84-17 187.04-17 186.04-11.35Q185.84-10.4 185.84-9.65L185.84-9.65Q185.84-6.5 188.84-6.5L188.84-6.5Q190.44-6.5 191.51-7.85 192.59-9.2 192.99-11.45L192.99-11.45 201.29-11.45Q199.19 0.7 187.24 0.7ZM223.28-36.35L223.28-36.35Q235.33-36.35 235.33-26.5L235.33-26.5Q235.33-24.85 234.98-22.95L234.98-22.95 233.23-12.95Q232.03-6 228.03-2.65 224.03 0.7 216.78 0.7 209.53 0.7 206.68-2.65L206.68-2.65Q204.73-4.95 204.73-9L204.73-9Q204.73-10.8 205.13-12.95L205.13-12.95 206.88-22.95Q209.23-36.35 223.28-36.35ZM218.13-7.05L218.13-7.05Q220.63-7.05 222.13-8.35 223.63-9.65 224.23-13.15L224.23-13.15 225.93-22.75Q226.08-23.75 226.08-24.55L226.08-24.55Q226.08-28.6 221.98-28.6L221.98-28.6Q216.83-28.5 215.83-22.75L215.83-22.75 214.13-13.15Q213.93-11.9 213.93-10.55L213.93-10.55Q213.93-7.05 218.13-7.05Z" opacity="1" transform="matrix(1,0,0,1,0,0)" fill="#ff0000" class="wordmark-text-0" data-fill-palette-color="primary" id="text-0"></path></svg></g></svg></g></svg></g></svg></g><g transform="matrix(1,0,0,1,150.60964814705565,0)"><svg viewBox="0 0 94.30070370588867 86.71312400770714" height="86.71312400770714" width="94.30070370588867"><g><svg xmlns="http://www.w3.org/2000/svg" version="1.1" data-icon="volume-medium" data-container-transform="scale(1 1 ) translate(3 4 )" viewBox="3 4 26 23.907999999999994" x="0" y="0" height="86.71312400770714" width="94.30070370588867" class="icon-icon-0" data-fill-palette-color="accent" id="icon-0"><path d="M13.5 0c-0.3 0-0.706 0.113-0.906 0.313l-7.188 6.375c-0.2 0.2-0.606 0.313-0.906 0.313h-4c-0.3 0-0.5 0.2-0.5 0.5v9c0 0.3 0.2 0.5 0.5 0.5h4c0.3 0 0.706 0.113 0.906 0.313l7.188 6.281c0.2 0.2 0.606 0.313 0.906 0.313 0.3 0 0.5-0.2 0.5-0.5v-23c0-0.2-0.2-0.406-0.5-0.406z m9 3.5l-1.406 1.406c1.823 1.823 2.906 4.252 2.906 7.094 0 2.842-1.083 5.271-2.906 7.094l1.406 1.406c2.177-2.177 3.5-5.142 3.5-8.5 0-3.358-1.323-6.323-3.5-8.5z m-4.281 4.281l-1.438 1.438c0.743 0.743 1.219 1.667 1.219 2.781s-0.476 2.038-1.219 2.781l1.438 1.438c1.057-1.057 1.781-2.533 1.781-4.219 0-1.686-0.724-3.162-1.781-4.219z" transform="translate(3 4)" fill="#ff0000" data-fill-palette-color="accent"></path></svg></g></svg></g><g></g></svg></g></svg></g></svg></g></svg></g><defs></defs></svg><rect width="395.52" height="247.2" fill="none" stroke="none" visibility="hidden"></rect></g></svg></g></svg>